<svg version="1.1" id="Layer_1" xmlns="http://www.w3.org/2000/svg" xmlns:xlink="http://www.w3.org/1999/xlink" x="0px" y="0px"
	 width="100%" viewBox="0 0 2048 2048" enable-background="new 0 0 2048 2048" xml:space="preserve">
<path fill="#1C1C1C" opacity="1.000000" stroke="none" 
	d="
M934.000000,2049.000000 
	C622.666687,2049.000000 311.833344,2049.000000 1.000000,2049.000000 
	C1.000000,1366.333374 1.000000,683.666687 1.000000,1.000000 
	C683.666687,1.000000 1366.333374,1.000000 2049.000000,1.000000 
	C2049.000000,683.666687 2049.000000,1366.333374 2049.000000,2049.000000 
	C1677.500000,2049.000000 1306.000000,2049.000000 934.000000,2049.000000 
M1237.374268,700.107300 
	C1110.382446,700.129517 983.390442,700.247498 856.399231,699.976440 
	C847.107056,699.956604 840.688599,702.315186 833.980164,709.123108 
	C781.471130,762.411133 728.433655,815.178284 675.599304,868.146179 
	C648.888977,894.924072 622.236938,921.760498 595.663940,948.674500 
	C594.212646,950.144531 592.922729,952.573669 592.919861,954.558289 
	C592.821228,1023.221680 592.858032,1091.885498 593.054504,1160.548706 
	C593.061096,1162.833008 594.365173,1165.665894 596.001648,1167.310669 
	C622.440125,1193.884766 649.058105,1220.280029 675.581177,1246.770264 
	C730.753235,1301.873901 785.875000,1357.028076 841.136719,1412.041626 
	C842.754150,1413.651733 845.689087,1414.608521 848.045227,1414.678833 
	C854.695129,1414.877075 861.363464,1414.300171 868.024658,1414.298340 
	C1000.018921,1414.262085 1132.013184,1414.264038 1264.007446,1414.258301 
	C1265.952881,1414.258179 1267.898315,1414.258301 1269.861450,1414.258301 
	C1269.861450,1274.505127 1269.861450,1135.287720 1269.861450,995.728577 
	C1267.711792,995.728577 1265.902954,995.730103 1264.094116,995.728271 
	C1227.595825,995.690796 1191.097412,995.634216 1154.599121,995.619873 
	C1108.434448,995.601624 1062.269775,995.610474 1016.105103,995.638855 
	C1013.576233,995.640381 1011.266113,995.201050 1009.336609,998.276001 
	C980.762878,1043.812622 951.989685,1089.224121 923.273804,1134.671509 
	C922.345764,1136.140381 921.526917,1137.678223 920.141846,1140.075928 
	C987.761963,1140.075928 1054.431763,1140.075928 1120.909912,1140.075928 
	C1120.909912,1183.659790 1120.909912,1226.594604 1120.909912,1269.439087 
	C1120.421875,1269.570435 1120.260864,1269.651733 1120.099976,1269.651733 
	C1049.606323,1269.682861 979.112610,1269.719604 908.618958,1269.653320 
	C907.204712,1269.651978 905.467468,1268.770020 904.431152,1267.743530 
	C898.311096,1261.681274 892.429382,1255.378662 886.330139,1249.294678 
	C838.075562,1201.161011 789.773193,1153.075073 741.591003,1104.869019 
	C740.067566,1103.344849 738.901062,1100.686646 738.887207,1098.548584 
	C738.710022,1071.217651 738.705017,1043.884766 738.900269,1016.554016 
	C738.916931,1014.226624 740.098755,1011.351624 741.718628,1009.679932 
	C754.006409,996.997986 766.481750,984.495605 779.005249,972.044556 
	C819.409241,931.874268 859.942932,891.833679 900.165588,851.482849 
	C904.348938,847.286072 908.340332,845.875854 914.028198,845.899231 
	C961.858582,846.095947 1009.690125,845.981018 1057.521362,846.018555 
	C1118.683594,846.066589 1179.845947,846.169250 1240.952148,846.966309 
	C1240.418945,848.350586 1239.964233,849.771240 1239.341064,851.113708 
	C1229.594604,872.109924 1219.811523,893.089111 1210.086670,914.095215 
	C1209.154419,916.109070 1208.552124,918.275696 1207.796631,920.371338 
	C1208.116577,920.637390 1208.436523,920.903442 1208.756470,921.169495 
	C1296.252563,872.693237 1383.748657,824.217041 1472.458130,775.068542 
	C1383.701050,727.342224 1296.427734,680.413818 1209.154541,633.485474 
	C1208.775879,633.944214 1208.397217,634.402893 1208.018677,634.861633 
	C1209.350586,638.017944 1210.579834,641.222473 1212.031494,644.322693 
	C1220.716431,662.871521 1229.452759,681.396301 1237.374268,700.107300 
M1973.514648,1976.031494 
	C1984.877930,1964.653442 1988.130249,1950.398926 1982.482422,1936.726440 
	C1976.775879,1922.911987 1964.227295,1914.977661 1948.042969,1914.963501 
	C1939.711060,1914.956299 1931.377319,1914.859497 1923.047485,1914.989624 
	C1904.234009,1915.283325 1889.045410,1930.843140 1888.964478,1949.775879 
	C1888.882324,1969.007202 1904.040039,1984.711182 1923.101440,1985.009644 
	C1931.597900,1985.142578 1940.101440,1984.890137 1948.595947,1985.075928 
	C1957.853271,1985.278320 1965.935791,1982.441162 1973.514648,1976.031494 
z"/>
<path fill="#FDF9EB" opacity="1.000000" stroke="none" 
	d="
M1241.008179,846.248352 
	C1179.845947,846.169250 1118.683594,846.066589 1057.521362,846.018555 
	C1009.690125,845.981018 961.858582,846.095947 914.028198,845.899231 
	C908.340332,845.875854 904.348938,847.286072 900.165588,851.482849 
	C859.942932,891.833679 819.409241,931.874268 779.005249,972.044556 
	C766.481750,984.495605 754.006409,996.997986 741.718628,1009.679932 
	C740.098755,1011.351624 738.916931,1014.226624 738.900269,1016.554016 
	C738.705017,1043.884766 738.710022,1071.217651 738.887207,1098.548584 
	C738.901062,1100.686646 740.067566,1103.344849 741.591003,1104.869019 
	C789.773193,1153.075073 838.075562,1201.161011 886.330139,1249.294678 
	C892.429382,1255.378662 898.311096,1261.681274 904.431152,1267.743530 
	C905.467468,1268.770020 907.204712,1269.651978 908.618958,1269.653320 
	C979.112610,1269.719604 1049.606323,1269.682861 1120.099976,1269.651733 
	C1120.260864,1269.651733 1120.421875,1269.570435 1120.909912,1269.439087 
	C1120.909912,1226.594604 1120.909912,1183.659790 1120.909912,1140.075928 
	C1054.431763,1140.075928 987.761963,1140.075928 920.141846,1140.075928 
	C921.526917,1137.678223 922.345764,1136.140381 923.273804,1134.671509 
	C951.989685,1089.224121 980.762878,1043.812622 1009.336609,998.276001 
	C1011.266113,995.201050 1013.576233,995.640381 1016.105103,995.638855 
	C1062.269775,995.610474 1108.434448,995.601624 1154.599121,995.619873 
	C1191.097412,995.634216 1227.595825,995.690796 1264.094116,995.728271 
	C1265.902954,995.730103 1267.711792,995.728577 1269.861450,995.728577 
	C1269.861450,1135.287720 1269.861450,1274.505127 1269.861450,1414.258301 
	C1267.898315,1414.258301 1265.952881,1414.258179 1264.007446,1414.258301 
	C1132.013184,1414.264038 1000.018921,1414.262085 868.024658,1414.298340 
	C861.363464,1414.300171 854.695129,1414.877075 848.045227,1414.678833 
	C845.689087,1414.608521 842.754150,1413.651733 841.136719,1412.041626 
	C785.875000,1357.028076 730.753235,1301.873901 675.581177,1246.770264 
	C649.058105,1220.280029 622.440125,1193.884766 596.001648,1167.310669 
	C594.365173,1165.665894 593.061096,1162.833008 593.054504,1160.548706 
	C592.858032,1091.885498 592.821228,1023.221680 592.919861,954.558289 
	C592.922729,952.573669 594.212646,950.144531 595.663940,948.674500 
	C622.236938,921.760498 648.888977,894.924072 675.599304,868.146179 
	C728.433655,815.178284 781.471130,762.411133 833.980164,709.123108 
	C840.688599,702.315186 847.107056,699.956604 856.399231,699.976440 
	C983.390442,700.247498 1110.382446,700.129517 1238.060791,700.356201 
	C1250.703735,724.545959 1262.717285,748.458740 1274.495972,772.486694 
	C1275.337646,774.203735 1275.128174,777.083435 1274.273926,778.885254 
	C1264.591187,799.311279 1254.707031,819.641968 1244.813843,839.967712 
	C1243.747070,842.159424 1242.286255,844.159424 1241.008179,846.248352 
z"/>
<path fill="#F9670A" opacity="1.000000" stroke="none" 
	d="
M1240.980225,846.607300 
	C1242.286255,844.159424 1243.747070,842.159424 1244.813843,839.967712 
	C1254.707031,819.641968 1264.591187,799.311279 1274.273926,778.885254 
	C1275.128174,777.083435 1275.337646,774.203735 1274.495972,772.486694 
	C1262.717285,748.458740 1250.703735,724.545959 1238.459473,700.267151 
	C1229.452759,681.396301 1220.716431,662.871521 1212.031494,644.322693 
	C1210.579834,641.222473 1209.350586,638.017944 1208.018677,634.861633 
	C1208.397217,634.402893 1208.775879,633.944214 1209.154541,633.485474 
	C1296.427734,680.413818 1383.701050,727.342224 1472.458130,775.068542 
	C1383.748657,824.217041 1296.252563,872.693237 1208.756470,921.169495 
	C1208.436523,920.903442 1208.116577,920.637390 1207.796631,920.371338 
	C1208.552124,918.275696 1209.154419,916.109070 1210.086670,914.095215 
	C1219.811523,893.089111 1229.594604,872.109924 1239.341064,851.113708 
	C1239.964233,849.771240 1240.418945,848.350586 1240.980225,846.607300 
z"/>
<path fill="#848484" opacity="1.000000" stroke="none" 
	d="
M1973.251953,1976.274170 
	C1965.935791,1982.441162 1957.853271,1985.278320 1948.595947,1985.075928 
	C1940.101440,1984.890137 1931.597900,1985.142578 1923.101440,1985.009644 
	C1904.040039,1984.711182 1888.882324,1969.007202 1888.964478,1949.775879 
	C1889.045410,1930.843140 1904.234009,1915.283325 1923.047485,1914.989624 
	C1931.377319,1914.859497 1939.711060,1914.956299 1948.042969,1914.963501 
	C1964.227295,1914.977661 1976.775879,1922.911987 1982.482422,1936.726440 
	C1988.130249,1950.398926 1984.877930,1964.653442 1973.251953,1976.274170 
M1953.712280,1947.729736 
	C1953.673950,1940.787476 1953.447266,1940.581299 1947.382080,1942.041504 
	C1947.382080,1950.207764 1947.382080,1958.384888 1947.382080,1966.626831 
	C1949.487915,1966.626831 1951.248657,1966.626831 1953.711914,1966.626831 
	C1953.711914,1960.483643 1953.711914,1954.578369 1953.712280,1947.729736 
M1946.300415,1935.304321 
	C1947.498657,1937.995361 1949.632446,1939.266235 1952.165161,1937.697876 
	C1953.295166,1936.998291 1954.095215,1934.633179 1953.862305,1933.218872 
	C1953.671265,1932.059937 1951.123779,1930.123047 1950.668701,1930.380737 
	C1948.941406,1931.359375 1947.640015,1933.089355 1946.300415,1935.304321 
z"/>
<path fill="#1C1C1C" opacity="1.000000" stroke="none" 
	d="
M1953.712158,1948.201416 
	C1953.711914,1954.578369 1953.711914,1960.483643 1953.711914,1966.626831 
	C1951.248657,1966.626831 1949.487915,1966.626831 1947.382080,1966.626831 
	C1947.382080,1958.384888 1947.382080,1950.207764 1947.382080,1942.041504 
	C1953.447266,1940.581299 1953.673950,1940.787476 1953.712158,1948.201416 
z"/>
<path fill="#1C1C1C" opacity="1.000000" stroke="none" 
	d="
M1946.239990,1934.921387 
	C1947.640015,1933.089355 1948.941406,1931.359375 1950.668701,1930.380737 
	C1951.123779,1930.123047 1953.671265,1932.059937 1953.862305,1933.218872 
	C1954.095215,1934.633179 1953.295166,1936.998291 1952.165161,1937.697876 
	C1949.632446,1939.266235 1947.498657,1937.995361 1946.239990,1934.921387 
z"/>
</svg>