<svg xmlns="http://www.w3.org/2000/svg" viewBox="0 0 2048 2048">
	<path fill="#FDF9EB"
		d="M1241.008 846.248c-61.162-.079-122.324-.181-183.487-.23-47.83-.037-95.662.078-143.493-.119-5.688-.023-9.68 1.387-13.862 5.584-40.223 40.35-80.757 80.391-121.16 120.562-12.524 12.45-25 24.953-37.287 37.635-1.62 1.672-2.802 4.547-2.819 6.874-.195 27.33-.19 54.664-.013 81.995.014 2.138 1.18 4.796 2.704 6.32 48.182 48.206 96.485 96.292 144.74 144.426 6.098 6.084 11.98 12.386 18.1 18.449 1.036 1.026 2.774 1.908 4.188 1.91 70.494.066 140.987.029 211.481-.002.16 0 .322-.082.81-.213v-129.363H920.142c1.385-2.398 2.204-3.936 3.132-5.404 28.716-45.448 57.489-90.86 86.063-136.396 1.93-3.075 4.24-2.636 6.768-2.637 46.165-.029 92.33-.037 138.494-.02 36.498.015 72.997.072 109.495.11h5.767v418.53h-5.854c-131.994.005-263.988.003-395.982.04-6.662.001-13.33.578-19.98.38-2.356-.07-5.29-1.027-6.908-2.637-55.262-55.014-110.384-110.168-165.556-165.272-26.523-26.49-53.14-52.885-79.58-79.46-1.636-1.644-2.94-4.477-2.946-6.761-.197-68.664-.234-137.327-.135-205.99.003-1.985 1.293-4.414 2.744-5.885a22195.291 22195.291 0 0179.935-80.528c52.835-52.968 105.872-105.735 158.381-159.023 6.709-6.808 13.127-9.166 22.42-9.147 126.99.271 253.982.154 381.66.38 12.644 24.19 24.657 48.103 36.436 72.13.842 1.718.632 4.597-.222 6.4-9.683 20.425-19.567 40.756-29.46 61.082-1.067 2.191-2.528 4.191-3.806 6.28z" />
	<path fill="#e53e3e"
		d="M1240.98 846.607c1.306-2.448 2.767-4.448 3.834-6.64 9.893-20.325 19.777-40.656 29.46-61.082.854-1.802 1.064-4.681.222-6.398-11.779-24.028-23.792-47.941-36.037-72.22a8318.414 8318.414 0 01-26.428-55.944c-1.451-3.1-2.68-6.305-4.012-9.461.378-.46.757-.918 1.136-1.377l263.303 141.584-263.702 146.1-.96-.798c.756-2.095 1.358-4.262 2.29-6.276 9.726-21.006 19.509-41.985 29.255-62.981.623-1.343 1.078-2.763 1.64-4.507z" />
</svg>