<svg xmlns="http://www.w3.org/2000/svg" viewBox="375 375 1300 1300">
	<path fill="#1a1a1a"
		d="M1402 2049H1V1h2048v2048h-647M1130.96 415.8c-25.599-1.647-51.175-3.988-76.8-4.821-113.298-3.683-224.002 12.048-332.362 45.144-67.485 20.612-132.311 47.502-194.553 80.717-4.371 2.333-5.612 5.487-5.921 9.958-4.53 65.566-6.058 131.174-3.064 196.856 4.03 88.402 19.034 174.812 46.797 258.932 25.535 77.37 62.349 148.98 109.836 215.111 44.904 62.534 98.221 117.11 157.877 165.59 44.734 36.354 93.08 67.42 142.593 96.743 5.125 3.035 6.27 2.306 6.252-3.806-.034-11.999-.24-23.998-.259-35.997-.03-20.333 0-40.666.08-60.998.014-3.55-.748-6.206-4.096-8.361-15.265-9.827-30.567-19.624-45.454-30.008-75.23-52.478-139.595-115.928-191.633-191.572-72.792-105.813-111.839-223.766-125.095-350.833-6.64-63.649-6.482-127.436-3.387-191.276.245-5.059 2.142-7.718 6.642-9.805 49.363-22.9 99.829-42.845 152.245-57.687 52.233-14.79 105.304-25.161 159.306-30.842 39.698-4.176 79.496-4.375 119.349-4.042 59.272.494 117.629 8.59 175.427 20.935 71.703 15.314 140.31 39.884 206.716 70.805 3.987 1.856 5.815 4.112 5.93 8.613.482 18.825 1.521 37.636 1.932 56.462 2.159 98.763-7.704 196.058-36.159 291.017-27.771 92.679-72.274 176.41-134.265 250.792-1.932 2.318-3.225 5.424-4.036 8.377-3.842 13.976-7.034 28.138-11.15 42.029-13.318 44.954-29.743 88.781-48.627 131.692-.901 2.048-1.527 4.217-2.281 6.33l.966.785c2.646-1.895 5.394-3.665 7.923-5.705 29.334-23.67 57.403-48.711 83.642-75.825 48.209-49.816 90.285-104.21 124.668-164.5 43.136-75.638 72.826-156.348 91.012-241.348 11.003-51.425 17.123-103.53 20.487-155.995 4.361-68.026 1.679-135.927-2.971-203.813-.28-4.083-1.932-6.624-5.572-8.618-47.187-25.839-96.448-46.938-147.098-64.936-42.918-15.251-86.353-28.933-131.068-37.597-37.424-7.25-75.268-12.342-113.829-18.504m-28.461 622.624c9.331.004 18.663.046 27.995-.005 3.635-.02 5.54 1.312 5.531 5.272-.057 24.165-.045 48.33.065 72.495.019 4.192-1.92 5.547-5.805 5.503-9.165-.103-18.332.007-27.498-.039-35.662-.178-71.34.184-106.982-.745-32.21-.84-62.004-10.7-86.847-31.43-53.573-44.7-69.854-102.625-55.367-169.442 8.224-37.928 32.096-64.177 68.2-78.634 21.265-8.513 43.665-12.155 66.504-12.351 44.995-.387 89.993-.424 134.99-.518 4.041-.008 7.22-.65 9.936-4.238 22.621-29.893 45.432-59.642 68.161-89.454.819-1.074 1.382-2.342 2.519-4.306-3.162-.179-5.272-.403-7.383-.403-63.33.005-126.661.074-189.992.039-34.833-.02-69.171 3.462-102.796 13.081-65.704 18.796-112.391 59.242-137.304 122.967-26.253 67.15-23.682 134.616 3.893 200.743 26.486 63.516 71.522 109.323 135.884 135.07 37.231 14.894 76.255 19.85 116.104 19.61 7.396-.044 7.753.301 7.756 7.486.034 83.496.094 166.991.048 250.487-.026 48.163-.241 96.327-.334 144.49-.005 2.829.33 5.658.507 8.488 2.525-2.017 3.865-4.087 5.024-6.254 5.658-10.58 11.344-21.147 16.882-31.79 37.542-72.16 73.718-144.97 105.716-219.804 30.537-71.417 55.999-144.475 72.336-220.535 3.495-16.273 7.193-32.416 7.052-49.335-.435-52.328-.239-104.66-.302-156.992-.009-7.151-.346-7.469-7.756-7.463-18.998.016-37.997.07-56.996.09-70.663.07-141.326.127-211.988.222-2.66.004-5.32.356-7.98.546l-1.49 2.597c1.522.731 3.263 1.193 4.533 2.232 36.23 29.656 72.368 59.422 108.697 88.955 2.463 2.003 6.258 3.132 9.495 3.275 9.313.415 18.659.115 28.992.09m794.152 889.703c-8.796 11.73-10.448 24.412-3.88 37.514 6.674 13.31 18.059 19.462 32.88 19.406 8.157-.031 16.315.063 24.471-.024 19.513-.207 34.883-15.644 34.913-34.982.03-19.312-15.344-34.827-34.833-35.061-8.156-.098-16.315.08-24.47-.046-11.52-.177-21.103 3.885-29.08 13.193z" />
	<path fill="#E52928"
		d="M1131.412 415.856c38.11 6.105 75.953 11.196 113.377 18.447 44.715 8.664 88.15 22.346 131.068 37.597 50.65 17.998 99.91 39.097 147.098 64.936 3.64 1.994 5.292 4.535 5.572 8.618 4.65 67.886 7.332 135.787 2.97 203.813-3.363 52.464-9.483 104.57-20.486 155.995-18.186 85-47.876 165.71-91.012 241.348-34.383 60.29-76.459 114.684-124.668 164.5-26.239 27.114-54.308 52.156-83.642 75.825-2.53 2.04-5.277 3.81-7.923 5.705l-.966-.786c.754-2.112 1.38-4.281 2.281-6.33 18.884-42.91 35.31-86.737 48.628-131.691 4.115-13.89 7.307-28.053 11.149-42.029.811-2.953 2.104-6.059 4.036-8.377 61.99-74.382 106.494-158.113 134.265-250.792 28.455-94.96 38.318-192.254 36.16-291.017-.412-18.826-1.451-37.637-1.933-56.462-.115-4.5-1.943-6.757-5.93-8.613-66.405-30.921-135.013-55.49-206.716-70.805-57.798-12.345-116.155-20.44-175.427-20.935-39.853-.333-79.651-.134-119.35 4.042-54.001 5.68-107.072 16.052-159.305 30.842-52.416 14.842-102.882 34.787-152.245 57.687-4.5 2.087-6.397 4.746-6.642 9.805-3.095 63.84-3.253 127.627 3.387 191.276 13.256 127.067 52.303 245.02 125.095 350.833 52.038 75.644 116.404 139.094 191.633 191.572 14.887 10.384 30.189 20.181 45.454 30.008 3.348 2.155 4.11 4.812 4.096 8.36-.08 20.333-.11 40.666-.08 61 .018 11.998.225 23.997.259 35.996.017 6.112-1.127 6.84-6.252 3.806-49.514-29.323-97.86-60.39-142.593-96.744-59.656-48.48-112.973-103.055-157.877-165.589-47.487-66.13-84.301-137.742-109.836-215.111-27.763-84.12-42.768-170.53-46.797-258.932-2.994-65.682-1.466-131.29 3.064-196.856.309-4.471 1.55-7.625 5.92-9.958 62.243-33.215 127.069-60.105 194.554-80.717 108.36-33.096 219.064-48.827 332.362-45.144 25.625.833 51.201 3.174 77.252 4.877z" />
	<path fill="#E42928"
		d="M1101.999 1038.426c-9.833.022-19.179.322-28.492-.093-3.237-.143-7.032-1.272-9.495-3.275-36.329-29.533-72.468-59.3-108.697-88.955-1.27-1.039-3.01-1.5-4.532-2.232l1.489-2.597c2.66-.19 5.32-.542 7.98-.546 70.662-.095 141.325-.151 211.988-.222 18.999-.02 37.998-.074 56.996-.09 7.41-.006 7.747.312 7.756 7.463.063 52.331-.133 104.664.302 156.992.14 16.919-3.557 33.062-7.052 49.335-16.337 76.06-41.8 149.118-72.336 220.535-31.998 74.833-68.174 147.645-105.716 219.804-5.538 10.643-11.224 21.21-16.882 31.79-1.159 2.167-2.499 4.237-5.024 6.254-.177-2.83-.512-5.66-.507-8.488.093-48.163.308-96.327.334-144.49.046-83.496-.014-166.991-.048-250.487-.003-7.185-.36-7.53-7.756-7.486-39.85.24-78.873-4.716-116.104-19.61-64.362-25.747-109.398-71.554-135.884-135.07-27.575-66.127-30.146-133.592-3.893-200.743 24.913-63.725 71.6-104.17 137.304-122.967 33.625-9.619 67.963-13.1 102.796-13.081 63.33.035 126.661-.034 189.992-.039 2.11 0 4.221.224 7.383.403-1.137 1.964-1.7 3.232-2.519 4.306-22.729 29.812-45.54 59.561-68.161 89.454-2.715 3.588-5.895 4.23-9.936 4.238-44.997.094-89.995.13-134.99.518-22.839.196-45.24 3.838-66.503 12.351-36.105 14.457-59.977 40.706-68.2 78.634-14.488 66.817 1.793 124.742 55.366 169.443 24.843 20.728 54.637 30.59 86.847 31.429 35.643.929 71.32.567 106.982.745 9.166.046 18.333-.064 27.498.04 3.885.043 5.824-1.312 5.805-5.504-.11-24.165-.122-48.33-.065-72.495.01-3.96-1.896-5.292-5.531-5.272-9.332.051-18.664.01-28.495.008z" />
	<path fill="#1a1a1a"
		d="M1896.86 1927.839c7.769-9.021 17.352-13.083 28.872-12.906 8.155.126 16.314-.052 24.47.046 19.49.234 34.862 15.749 34.833 35.06-.03 19.339-15.4 34.776-34.913 34.983-8.156.087-16.314-.007-24.471.024-14.821.056-26.206-6.095-32.88-19.406-6.568-13.102-4.916-25.784 4.088-37.801m50.148 28.622v10.462l6.589-.338c0-7.71.145-14.956-.164-22.183-.044-1.032-2.197-2.504-3.555-2.743-.753-.132-2.595 1.795-2.709 2.918-.364 3.602-.151 7.262-.161 11.884m5.015-25.819c-4.503-.275-7.237 2.278-5.28 5.165.887 1.31 3.872 2.551 5.114 2.01 3.262-1.424 3.248-4.15.166-7.175z" />
	<path fill="#1a1a1a"
		d="M1947.007 1955.969c.01-4.13-.203-7.79.161-11.392.114-1.123 1.956-3.05 2.71-2.918 1.357.24 3.51 1.71 3.554 2.743.31 7.227.164 14.472.164 22.183l-6.59.338v-10.954z" />
	<path fill="#1a1a1a"
		d="M1952.359 1930.852c2.745 2.815 2.76 5.54-.503 6.964-1.242.542-4.227-.698-5.115-2.009-1.956-2.887.778-5.44 5.618-4.955z" />
</svg>