<svg xmlns="http://www.w3.org/2000/svg" viewBox="375 375 1300 1300">
	<path fill="#E52928"
		d="M1131.412 415.856c38.11 6.105 75.953 11.196 113.377 18.447 44.715 8.664 88.15 22.346 131.068 37.597 50.65 17.998 99.91 39.097 147.098 64.936 3.64 1.994 5.292 4.535 5.572 8.618 4.65 67.886 7.332 135.787 2.97 203.813-3.363 52.464-9.483 104.57-20.486 155.995-18.186 85-47.876 165.71-91.012 241.348-34.383 60.29-76.459 114.684-124.668 164.5-26.239 27.114-54.308 52.156-83.642 75.825-2.53 2.04-5.277 3.81-7.923 5.705l-.966-.786c.754-2.112 1.38-4.281 2.281-6.33 18.884-42.91 35.31-86.737 48.628-131.691 4.115-13.89 7.307-28.053 11.149-42.029.811-2.953 2.104-6.059 4.036-8.377 61.99-74.382 106.494-158.113 134.265-250.792 28.455-94.96 38.318-192.254 36.16-291.017-.412-18.826-1.451-37.637-1.933-56.462-.115-4.5-1.943-6.757-5.93-8.613-66.405-30.921-135.013-55.49-206.716-70.805-57.798-12.345-116.155-20.44-175.427-20.935-39.853-.333-79.651-.134-119.35 4.042-54.001 5.68-107.072 16.052-159.305 30.842-52.416 14.842-102.882 34.787-152.245 57.687-4.5 2.087-6.397 4.746-6.642 9.805-3.095 63.84-3.253 127.627 3.387 191.276 13.256 127.067 52.303 245.02 125.095 350.833 52.038 75.644 116.404 139.094 191.633 191.572 14.887 10.384 30.189 20.181 45.454 30.008 3.348 2.155 4.11 4.812 4.096 8.36-.08 20.333-.11 40.666-.08 61 .018 11.998.225 23.997.259 35.996.017 6.112-1.127 6.84-6.252 3.806-49.514-29.323-97.86-60.39-142.593-96.744-59.656-48.48-112.973-103.055-157.877-165.589-47.487-66.13-84.301-137.742-109.836-215.111-27.763-84.12-42.768-170.53-46.797-258.932-2.994-65.682-1.466-131.29 3.064-196.856.309-4.471 1.55-7.625 5.92-9.958 62.243-33.215 127.069-60.105 194.554-80.717 108.36-33.096 219.064-48.827 332.362-45.144 25.625.833 51.201 3.174 77.252 4.877z" />
	<path fill="#E42928"
		d="M1101.999 1038.426c-9.833.022-19.179.322-28.492-.093-3.237-.143-7.032-1.272-9.495-3.275-36.329-29.533-72.468-59.3-108.697-88.955-1.27-1.039-3.01-1.5-4.532-2.232l1.489-2.597c2.66-.19 5.32-.542 7.98-.546 70.662-.095 141.325-.151 211.988-.222 18.999-.02 37.998-.074 56.996-.09 7.41-.006 7.747.312 7.756 7.463.063 52.331-.133 104.664.302 156.992.14 16.919-3.557 33.062-7.052 49.335-16.337 76.06-41.8 149.118-72.336 220.535-31.998 74.833-68.174 147.645-105.716 219.804-5.538 10.643-11.224 21.21-16.882 31.79-1.159 2.167-2.499 4.237-5.024 6.254-.177-2.83-.512-5.66-.507-8.488.093-48.163.308-96.327.334-144.49.046-83.496-.014-166.991-.048-250.487-.003-7.185-.36-7.53-7.756-7.486-39.85.24-78.873-4.716-116.104-19.61-64.362-25.747-109.398-71.554-135.884-135.07-27.575-66.127-30.146-133.592-3.893-200.743 24.913-63.725 71.6-104.17 137.304-122.967 33.625-9.619 67.963-13.1 102.796-13.081 63.33.035 126.661-.034 189.992-.039 2.11 0 4.221.224 7.383.403-1.137 1.964-1.7 3.232-2.519 4.306-22.729 29.812-45.54 59.561-68.161 89.454-2.715 3.588-5.895 4.23-9.936 4.238-44.997.094-89.995.13-134.99.518-22.839.196-45.24 3.838-66.503 12.351-36.105 14.457-59.977 40.706-68.2 78.634-14.488 66.817 1.793 124.742 55.366 169.443 24.843 20.728 54.637 30.59 86.847 31.429 35.643.929 71.32.567 106.982.745 9.166.046 18.333-.064 27.498.04 3.885.043 5.824-1.312 5.805-5.504-.11-24.165-.122-48.33-.065-72.495.01-3.96-1.896-5.292-5.531-5.272-9.332.051-18.664.01-28.495.008z" />
</svg>